<?xml version="1.0" encoding="UTF-8"?>
<svg version="1.1" xmlns="http://www.w3.org/2000/svg" width="612" height="408">
<path d="M0 0 C27.8517131 -0.67475265 53.61673777 3.58564628 75 23 C76.79221617 24.92935144 78.37279245 26.92079035 80 29 C80.804375 29.763125 81.60875 30.52625 82.4375 31.3125 C85.84921146 34.89063641 88.37297029 38.82608985 91 43 C91.50789063 43.78632813 92.01578125 44.57265625 92.5390625 45.3828125 C100.89162859 58.70408457 106.55139448 74.20128388 107 90 C107.02046387 90.69254883 107.04092773 91.38509766 107.06201172 92.09863281 C107.62248342 114.0635652 103.73225147 132.74234531 93 152 C91 154 91 154 87.875 154.203125 C83.84759957 153.99201127 79.95899629 153.47909523 76 152.75 C75.26233398 152.61577637 74.52466797 152.48155273 73.76464844 152.34326172 C51.32325426 148.11928196 30.07435938 140.11690161 12 126 C11.27296875 125.48695313 10.5459375 124.97390625 9.796875 124.4453125 C-5.29596734 113.78815283 -15.80320563 95.74644478 -20 78 C-22.84357556 59.62612716 -19.96798874 41.69915869 -15 24 C-14.71455322 22.97398682 -14.71455322 22.97398682 -14.42333984 21.92724609 C-12.38508429 14.77016857 -12.38508429 14.77016857 -11 12 C-10.01 11.67 -9.02 11.34 -8 11 C-8.53330485 15.65476759 -9.20961015 20.18929999 -10.15551758 24.78198242 C-14.72830094 47.59652305 -12.63477159 69.792486 0.25390625 89.52734375 C6.69593576 98.6499493 14.46204981 105.13099413 25 109 C24.12977821 106.98858446 24.12977821 106.98858446 23 105 C22.1028125 104.814375 22.1028125 104.814375 21.1875 104.625 C17.66137729 103.61753637 16.19839482 100.8184549 14 98 C13.401875 97.4225 12.80375 96.845 12.1875 96.25 C11 95 11 95 11 93 C10.13375 92.68482422 10.13375 92.68482422 9.25 92.36328125 C2.02718704 87.98695881 -2.14512506 76.28140591 -4.25390625 68.51171875 C-7.13910845 54.93163093 -8.7653815 40.34306821 -4 27 C-3.01 27.33 -2.02 27.66 -1 28 C-0.97083496 28.67877197 -0.94166992 29.35754395 -0.91162109 30.05688477 C-0.25633607 43.73567029 0.53032225 55.75714092 7 68 C7.47695313 68.92683594 7.95390625 69.85367188 8.4453125 70.80859375 C11.46772607 76.23407384 15.1819984 80.70022304 19.4609375 85.1875 C21 87 21 87 21 89 C21.51046875 89.23460937 22.0209375 89.46921875 22.546875 89.7109375 C25.91515199 91.48089197 29.06212652 93.55158635 32.25 95.625 C32.8996875 96.04523438 33.549375 96.46546875 34.21875 96.8984375 C35.81368881 97.93045673 37.40700669 98.96498028 39 100 C38.08541016 99.10087891 38.08541016 99.10087891 37.15234375 98.18359375 C35 96 35 96 32.5625 93.0625 C30.1126805 90.02943592 30.1126805 90.02943592 27.5625 87.625 C19 78.85365854 19 78.85365854 19 73 C18.34 73 17.68 73 17 73 C12.88627455 63.20002407 10.03682745 54.75361569 10 44 C10.66 44 11.32 44 12 44 C13.953125 47.41796875 15.90625 50.8359375 17.859375 54.25390625 C18.21483398 54.87322021 18.57029297 55.49253418 18.93652344 56.13061523 C19.63687465 57.36169632 20.32791213 58.59813013 21.00878906 59.84008789 C23.11724149 63.65347857 25.45053227 66.97905972 28.25 70.3125 C32 74.7810219 32 74.7810219 32 77 C33.32 77.66 34.64 78.32 36 79 C36 79.66 36 80.32 36 81 C36.52851563 81.24363281 37.05703125 81.48726563 37.6015625 81.73828125 C40.04668869 83.02456099 42.31993741 84.49129628 44.6184082 86.02124023 C54.81140258 92.7887085 64.85124689 98.68864027 77 101 C82.19944295 79.22733265 83.10911938 59.72383748 71 40 C69.24806798 37.56777705 67.44452394 35.23132576 65.515625 32.9375 C64 31 64 31 63.046875 28.875 C61.69026575 26.44525209 60.53040204 26.1289486 58 25 C56.40556254 23.96615456 54.81201622 22.93077742 53.23022461 21.87768555 C36.98516311 11.09262837 18.44210336 4.90608856 -1 3 C-0.67 2.01 -0.34 1.02 0 0 Z " fill="#383837" transform="translate(263,127)"/>
<path d="M0 0 C28.26848164 -0.68484954 53.0752729 3.88241236 75 23 C76.01129834 23.98857254 77.0153583 24.98487404 78 26 C77.67 26.66 77.34 27.32 77 28 C76.01 28 75.02 28 74 28 C73.505 26.02 73.505 26.02 73 24 C72.505 25.485 72.505 25.485 72 27 C71.34 27 70.68 27 70 27 C69.505 28.485 69.505 28.485 69 30 C67.824375 29.4740625 67.824375 29.4740625 66.625 28.9375 C65.75875 28.628125 64.8925 28.31875 64 28 C63.01 28.495 63.01 28.495 62 29 C62 28.34 62 27.68 62 27 C61.47535156 26.75894531 60.95070313 26.51789063 60.41015625 26.26953125 C57.90847814 24.95179156 55.58240029 23.44366749 53.23022461 21.87768555 C36.98516311 11.09262837 18.44210336 4.90608856 -1 3 C-0.67 2.01 -0.34 1.02 0 0 Z " fill="#3E3E3E" transform="translate(263,127)"/>
<path d="M0 0 C0.99 0.33 1.98 0.66 3 1 C3.04374756 2.01815796 3.04374756 2.01815796 3.08837891 3.05688477 C3.74530008 16.76982401 4.58988729 28.70642704 11 41 C11.56976563 42.10472656 12.13953125 43.20945313 12.7265625 44.34765625 C14.10419122 46.92989398 15.51994703 49.47551248 17 52 C16.01 52 15.02 52 14 52 C14.33 53.65 14.66 55.3 15 57 C14.01 57 13.02 57 12 57 C11.34 56.34 10.68 55.68 10 55 C10.33 57.31 10.66 59.62 11 62 C0.70714221 52.5519124 -2.07119913 37.50772153 -2.94140625 24.1171875 C-3.09514427 15.93832497 -2.768359 7.75140521 0 0 Z " fill="#434343" transform="translate(259,154)"/>
<path d="M0 0 C0.66 0 1.32 0 2 0 C3.953125 3.41796875 5.90625 6.8359375 7.859375 10.25390625 C8.39256348 11.1828772 8.39256348 11.1828772 8.93652344 12.13061523 C9.63687465 13.36169632 10.32791213 14.59813013 11.00878906 15.84008789 C13.11724149 19.65347857 15.45053227 22.97905972 18.25 26.3125 C22 30.7810219 22 30.7810219 22 33 C23.32 33.66 24.64 34.32 26 35 C26 35.66 26 36.32 26 37 C27.485 37.495 27.485 37.495 29 38 C28.01 38.495 28.01 38.495 27 39 C23.54912004 37.21293716 20.74146784 35.74146784 18 33 C14.62911733 35.27415287 14.62911733 35.27415287 13 39 C9 33.5 9 33.5 9 29 C8.34 29 7.68 29 7 29 C2.88627455 19.20002407 0.03682745 10.75361569 0 0 Z " fill="#424242" transform="translate(273,171)"/>
<path d="M0 0 C0.99 0.33 1.98 0.66 3 1 C3.04487549 1.70495605 3.08975098 2.40991211 3.13598633 3.13623047 C3.34953879 6.38339806 3.58090844 9.62907106 3.8125 12.875 C3.88275391 13.98359375 3.95300781 15.0921875 4.02539062 16.234375 C4.53651974 23.18573097 5.66016824 29.42764778 8 36 C6.02 36.495 6.02 36.495 4 37 C3.67 35.02 3.34 33.04 3 31 C2.01 33.31 1.02 35.62 0 38 C-0.33 38 -0.66 38 -1 38 C-2.87009317 25.23390941 -4.44831417 12.45527966 0 0 Z " fill="#5A5A5A" transform="translate(259,154)"/>
<path d="M0 0 C3.9166043 -0.0580966 7.83309763 -0.09362893 11.75 -0.125 C12.86117188 -0.14175781 13.97234375 -0.15851563 15.1171875 -0.17578125 C16.72207031 -0.18544922 16.72207031 -0.18544922 18.359375 -0.1953125 C19.34389648 -0.20578613 20.32841797 -0.21625977 21.34277344 -0.22705078 C24.05973111 0.00510382 25.68112513 0.60963727 28 2 C27.01 2.33 26.02 2.66 25 3 C25 4.32 25 5.64 25 7 C16.19828026 6.38641858 7.64045258 4.70450615 -1 3 C-0.67 2.01 -0.34 1.02 0 0 Z " fill="#575757" transform="translate(263,127)"/>
<path d="M0 0 C1.98 0.99 3.96 1.98 6 3 C5.67 3.680625 5.34 4.36125 5 5.0625 C3.82692685 8.50840238 3.85819507 11.38397422 4 15 C-0.28477792 12.69281189 -3.72291137 10.67033927 -7 7 C-4.66666667 4.66666667 -2.33333333 2.33333333 0 0 Z " fill="#434343" transform="translate(318,137)"/>
<path d="M0 0 C6.42857143 4.14285714 6.42857143 4.14285714 9 7 C8.67 7.66 8.34 8.32 8 9 C7.01 9 6.02 9 5 9 C4.67 7.68 4.34 6.36 4 5 C3.67 5.99 3.34 6.98 3 8 C2.34 8 1.68 8 1 8 C0.67 8.99 0.34 9.98 0 11 C-0.78375 10.649375 -1.5675 10.29875 -2.375 9.9375 C-3.24125 9.628125 -4.1075 9.31875 -5 9 C-5.99 9.495 -5.99 9.495 -7 10 C-7 9.34 -7 8.68 -7 8 C-7.66 7.67 -8.32 7.34 -9 7 C-7.88625 6.5875 -6.7725 6.175 -5.625 5.75 C-3.00679305 4.64453484 -2.16506911 4.25119213 -0.5625 1.8125 C-0.376875 1.214375 -0.19125 0.61625 0 0 Z " fill="#454545" transform="translate(332,146)"/>
<path d="M0 0 C6.625 0.75 6.625 0.75 10 3 C9 6 9 6 6.9375 7.1875 C6.298125 7.455625 5.65875 7.72375 5 8 C5 8.99 5 9.98 5 11 C3.68 10.67 2.36 10.34 1 10 C-0.04005702 6.61981469 -0.08004482 3.5219721 0 0 Z " fill="#3A3A3A" transform="translate(308,134)"/>
<path d="M0 0 C0.66 0 1.32 0 2 0 C1.33182164 5.70870833 0.46165521 11.34509513 -0.5625 17 C-0.70107422 17.77472656 -0.83964844 18.54945313 -0.98242188 19.34765625 C-1.31976121 21.23210355 -1.65961365 23.1161007 -2 25 C-2.33 25 -2.66 25 -3 25 C-3.33 22.69 -3.66 20.38 -4 18 C-4.33 18.66 -4.66 19.32 -5 20 C-6.76982406 15.85264121 -5.05314714 12.30447511 -3.625 8.3125 C-3.39039063 7.62349609 -3.15578125 6.93449219 -2.9140625 6.22460938 C-1.16171288 1.16171288 -1.16171288 1.16171288 0 0 Z " fill="#6C6C6C" transform="translate(253,138)"/>
<path d="M0 0 C2 3 2 3 1.625 5.1875 C1.41875 5.785625 1.2125 6.38375 1 7 C1.66 7 2.32 7 3 7 C3.33 6.34 3.66 5.68 4 5 C4.79953138 8.28696233 5.09658936 9.71023192 4 13 C3.01 13.33 2.02 13.66 1 14 C-1.0625 11.9375 -1.0625 11.9375 -3 9 C-2.78947368 2.78947368 -2.78947368 2.78947368 0 0 Z " fill="#2D2D2D" transform="translate(262,184)"/>
<path d="M0 0 C0.66 0 1.32 0 2 0 C3.36402043 2.2863012 4.71634274 4.57821749 6.0625 6.875 C6.45244141 7.52597656 6.84238281 8.17695313 7.24414062 8.84765625 C8.22444533 10.53065725 9.11898432 12.26296199 10 14 C9.67 14.66 9.34 15.32 9 16 C4.125 13.25 4.125 13.25 3 11 C2.34 11.66 1.68 12.32 1 13 C0.67 8.71 0.34 4.42 0 0 Z " fill="#5D5D5D" transform="translate(273,171)"/>
<path d="M0 0 C0.886875 0.78375 1.77375 1.5675 2.6875 2.375 C5.30720519 4.57156991 7.71715601 5.93790341 11 7 C10.67 7.66 10.34 8.32 10 9 C8.39125 8.7215625 8.39125 8.7215625 6.75 8.4375 C3.59608454 8.0695432 1.90181508 7.95534657 -1 9 C-1.33 8.01 -1.66 7.02 -2 6 C-2.99 6.495 -2.99 6.495 -4 7 C-4.33 5.68 -4.66 4.36 -5 3 C-3.35 2.01 -1.7 1.02 0 0 Z " fill="#2D2D2D" transform="translate(291,203)"/>
<path d="M0 0 C1 3 1 3 0 6 C-0.06802967 7.72795352 -0.08495645 9.45835365 -0.0625 11.1875 C-0.04896484 12.53908203 -0.04896484 12.53908203 -0.03515625 13.91796875 C-0.02355469 14.60503906 -0.01195312 15.29210937 0 16 C-0.61875 16.12375 -1.2375 16.2475 -1.875 16.375 C-4.19120832 16.87197356 -4.19120832 16.87197356 -6 19 C-5.55230183 12.95607475 -4.49961114 4.49961114 0 0 Z " fill="#505050" transform="translate(250,152)"/>
<path d="M0 0 C0.33 0 0.66 0 1 0 C1.12117188 0.71285156 1.24234375 1.42570313 1.3671875 2.16015625 C2.31063969 7.55234841 3.37362209 12.77235672 5 18 C3.68 18.33 2.36 18.66 1 19 C0.87625 17.88625 0.7525 16.7725 0.625 15.625 C0.3534187 11.96896323 0.3534187 11.96896323 -2 10 C-2.66 11.32 -3.32 12.64 -4 14 C-4.1953125 7.9453125 -4.1953125 7.9453125 -4 6 C-3.34 5.34 -2.68 4.68 -2 4 C-1.34 4.33 -0.68 4.66 0 5 C0 3.35 0 1.7 0 0 Z " fill="#585858" transform="translate(262,172)"/>
<path d="M0 0 C0.66 0 1.32 0 2 0 C2.08076963 2.45898655 2.14037143 4.91533742 2.1875 7.375 C2.22520508 8.42300781 2.22520508 8.42300781 2.26367188 9.4921875 C2.29296875 11.5234375 2.29296875 11.5234375 2 15 C1.01 15.66 0.02 16.32 -1 17 C-1.93213141 10.73960391 -2.20927172 5.97802937 0 0 Z " fill="#383838" transform="translate(259,154)"/>
<path d="M0 0 C0.226875 0.61875 0.45375 1.2375 0.6875 1.875 C2.38416443 4.6219805 4.05251711 4.86635273 7 6 C7.33 6.99 7.66 7.98 8 9 C7.01 10.485 7.01 10.485 6 12 C5.34 12 4.68 12 4 12 C4 11.01 4 10.02 4 9 C3.34 9 2.68 9 2 9 C2 8.34 2 7.68 2 7 C1.34 7 0.68 7 0 7 C0 4.69 0 2.38 0 0 Z " fill="#303030" transform="translate(275,180)"/>
<path d="M0 0 C0.33 0.66 0.66 1.32 1 2 C1.66 2 2.32 2 3 2 C3 2.99 3 3.98 3 5 C4.65 3.68 6.3 2.36 8 1 C9.32 2.98 10.64 4.96 12 7 C9.98177083 6.96744792 7.96354167 6.93489583 5.9453125 6.90234375 C3.91814596 6.87350758 3.91814596 6.87350758 2 8 C0.74335022 5.09399739 0 3.20395416 0 0 Z " fill="#535353" transform="translate(276,187)"/>
<path d="M0 0 C3 0 3 0 5 1 C5 2.65 5 4.3 5 6 C4.01 6 3.02 6 2 6 C2 6.66 2 7.32 2 8 C1.34 8 0.68 8 0 8 C-0.33 9.32 -0.66 10.64 -1 12 C-1.14285714 3.42857143 -1.14285714 3.42857143 0 0 Z " fill="#202020" transform="translate(245,167)"/>
<path d="M0 0 C0.33 0 0.66 0 1 0 C1 1.65 1 3.3 1 5 C2.32 4.67 3.64 4.34 5 4 C5 5.65 5 7.3 5 9 C5.66 9.33 6.32 9.66 7 10 C6.34 10.66 5.68 11.32 5 12 C2.69 9.36 0.38 6.72 -2 4 C-1.34 2.68 -0.68 1.36 0 0 Z " fill="#525252" transform="translate(289,207)"/>
<path d="M0 0 C4 0 4 0 5.6875 1.25 C7.12851655 3.1713554 7.59498797 4.65093022 8 7 C6.68 7.33 5.36 7.66 4 8 C3.896875 7.360625 3.79375 6.72125 3.6875 6.0625 C3.460625 5.381875 3.23375 4.70125 3 4 C2.01 3.67 1.02 3.34 0 3 C0 2.01 0 1.02 0 0 Z " fill="#2E2E2E" transform="translate(302,213)"/>
<path d="M0 0 C1.32 0.33 2.64 0.66 4 1 C2.68 1.33 1.36 1.66 0 2 C0 1.34 0 0.68 0 0 Z M-3 1 C-2.01 1.33 -1.02 1.66 0 2 C0.33 3.32 0.66 4.64 1 6 C-2.3 5.67 -5.6 5.34 -9 5 C-7.68 4.67 -6.36 4.34 -5 4 C-5 3.34 -5 2.68 -5 2 C-4.34 1.67 -3.68 1.34 -3 1 Z " fill="#5A5A5A" transform="translate(287,128)"/>
<path d="M0 0 C0.66 0 1.32 0 2 0 C4.19576787 3.2936518 4.36287182 4.18984584 4 8 C3 10.8125 3 10.8125 2 13 C1.67 13 1.34 13 1 13 C0.67 8.71 0.34 4.42 0 0 Z " fill="#4A4A4A" transform="translate(273,171)"/>
<path d="M0 0 C2.97 1.65 5.94 3.3 9 5 C9 5.66 9 6.32 9 7 C6.75 7.3125 6.75 7.3125 4 7 C0 2.89189189 0 2.89189189 0 0 Z " fill="#464646" transform="translate(306,213)"/>
<path d="M0 0 C2.64 0 5.28 0 8 0 C8 0.66 8 1.32 8 2 C6.35 2 4.7 2 3 2 C3 2.66 3 3.32 3 4 C1.68 4 0.36 4 -1 4 C-0.67 2.68 -0.34 1.36 0 0 Z " fill="#262626" transform="translate(279,128)"/>
<path d="M0 0 C4.12751449 0.60698743 7.3321148 2.03810791 11 4 C11 4.33 11 4.66 11 5 C4.8308026 5.17136659 4.8308026 5.17136659 2 4 C0.75 1.9375 0.75 1.9375 0 0 Z " fill="#5C5C5C" transform="translate(293,224)"/>
<path d="M0 0 C1 3 1 3 0 6 C0 6.99 0 7.98 0 9 C-0.66 9 -1.32 9 -2 9 C-2.66 9.66 -3.32 10.32 -4 11 C-3.39301257 6.87248551 -1.96189209 3.6678852 0 0 Z " fill="#343434" transform="translate(250,152)"/>
<path d="M0 0 C0.99 0.99 1.98 1.98 3 3 C2.02391783 5.92824652 0.89213369 7.61426621 -1 10 C-1.125 2.25 -1.125 2.25 0 0 Z " fill="#2B2B2B" transform="translate(259,176)"/>
<path d="M0 0 C2.31 0 4.62 0 7 0 C7 0.99 7 1.98 7 3 C4.69 3 2.38 3 0 3 C0 2.01 0 1.02 0 0 Z " fill="#484848" transform="translate(347,278)"/>
<path d="M0 0 C2.625 0.9375 2.625 0.9375 5 2 C4.67 2.66 4.34 3.32 4 4 C1.9375 4.625 1.9375 4.625 0 5 C-0.66 3.68 -1.32 2.36 -2 1 C-1.34 0.67 -0.68 0.34 0 0 Z " fill="#2F2F2F" transform="translate(275,248)"/>
<path d="M0 0 C1.5625 1.75 1.5625 1.75 3 4 C2.6875 6.25 2.6875 6.25 2 8 C1.34 8 0.68 8 0 8 C-0.38063221 5.6739143 -0.71269945 3.33944736 -1 1 C-0.67 0.67 -0.34 0.34 0 0 Z " fill="#4D4D4D" transform="translate(260,192)"/>
<path d="M0 0 C2 3 2 3 1.625 5.1875 C1.41875 5.785625 1.2125 6.38375 1 7 C0.01 6.67 -0.98 6.34 -2 6 C-1.125 1.125 -1.125 1.125 0 0 Z " fill="#343434" transform="translate(262,184)"/>
<path d="M0 0 C1.32 1.32 2.64 2.64 4 4 C3.34 5.65 2.68 7.3 2 9 C1.67 9 1.34 9 1 9 C0.67 6.03 0.34 3.06 0 0 Z " fill="#484848" transform="translate(353,170)"/>
<path d="M0 0 C3.465 1.98 3.465 1.98 7 4 C5.68 4.99 4.36 5.98 3 7 C2.67 5.35 2.34 3.7 2 2 C1.34 2 0.68 2 0 2 C0 1.34 0 0.68 0 0 Z " fill="#777777" transform="translate(325,141)"/>
<path d="M0 0 C2.3431213 0.25561323 4.67843403 0.59270772 7 1 C7.33 1.66 7.66 2.32 8 3 C5.36 2.67 2.72 2.34 0 2 C0 1.34 0 0.68 0 0 Z " fill="#6C6C6C" transform="translate(330,276)"/>
<path d="M0 0 C1.485 0.99 1.485 0.99 3 2 C3 2.66 3 3.32 3 4 C3.99 4.33 4.98 4.66 6 5 C5.01 5.495 5.01 5.495 4 6 C1.375 4.5625 1.375 4.5625 -1 3 C-0.67 2.01 -0.34 1.02 0 0 Z " fill="#6A6A6A" transform="translate(296,204)"/>
<path d="M0 0 C1.98 0 3.96 0 6 0 C6.33 1.65 6.66 3.3 7 5 C3.535 3.02 3.535 3.02 0 1 C0 0.67 0 0.34 0 0 Z " fill="#686868" transform="translate(315,147)"/>
<path d="M0 0 C0.66 0 1.32 0 2 0 C1.67 2.64 1.34 5.28 1 8 C-1 6 -1 6 -1.1875 3.4375 C-1 1 -1 1 0 0 Z " fill="#7D7D7D" transform="translate(253,138)"/>
</svg>
